<svg width="206" height="59" viewBox="0 0 206 59" fill="none" xmlns="http://www.w3.org/2000/svg">
<path d="M204.007 52.1954C204.007 55.3395 201.407 57.8864 198.191 57.8864H7.86826C4.65397 57.8864 2.04492 55.3395 2.04492 52.1954V6.81125C2.04492 3.66856 4.65397 1.11279 7.86826 1.11279H198.189C201.407 1.11279 204.005 3.66856 204.005 6.81125L204.007 52.1954Z" fill="black"/>
<path d="M197.577 1.18183C201.079 1.18183 203.929 3.96036 203.929 7.37499V51.625C203.929 55.0396 201.079 57.8182 197.577 57.8182H8.47426C4.97208 57.8182 2.1223 55.0396 2.1223 51.625V7.37499C2.1223 3.96036 4.97208 1.18183 8.47426 1.18183H197.577ZM197.577 -8.69231e-06H8.47426C4.31589 -8.69231e-06 0.910156 3.32058 0.910156 7.37499V51.625C0.910156 55.6794 4.31589 59 8.47426 59H197.577C201.735 59 205.141 55.6794 205.141 51.625V7.37499C205.141 3.32058 201.735 -8.69231e-06 197.577 -8.69231e-06Z" fill="#A6A6A6"/>
<path d="M46.4959 29.1817C46.4521 24.4278 50.4883 22.115 50.6728 22.0073C48.387 18.7579 44.8439 18.3139 43.5989 18.2785C40.6232 17.9732 37.7367 20.0146 36.2209 20.0146C34.6748 20.0146 32.3405 18.308 29.8247 18.3582C26.5872 18.4069 23.5585 20.2344 21.8975 23.0723C18.4694 28.8587 21.0261 37.3621 24.3104 42.0393C25.9533 44.33 27.8731 46.8876 30.3859 46.7977C32.8442 46.6988 33.7625 45.2696 36.7292 45.2696C39.6686 45.2696 40.5309 46.7977 43.0936 46.7401C45.732 46.6988 47.393 44.4391 48.9785 42.1278C50.8771 39.5023 51.6395 36.9166 51.6698 36.7839C51.6078 36.7632 46.5459 34.8797 46.4959 29.1817Z" fill="white"/>
<path d="M41.6549 15.2017C42.9771 13.5895 43.8818 11.3962 43.6307 9.17041C41.7169 9.25301 39.3237 10.461 37.9455 12.0378C36.7261 13.4273 35.6369 15.7047 35.9183 17.8464C38.068 18.0027 40.2752 16.7888 41.6549 15.2017Z" fill="white"/>
<path d="M82.0708 46.4677H78.6351L76.7532 40.7019H70.2118L68.4191 46.4677H65.0742L71.5551 26.8384H75.5581L82.0708 46.4677ZM76.1859 38.2829L74.484 33.1573C74.3039 32.6337 73.9666 31.4006 73.4689 29.4595H73.4083C73.2102 30.2943 72.891 31.5274 72.4522 33.1573L70.7806 38.2829H76.1859Z" fill="white"/>
<path d="M98.7378 39.217C98.7378 41.6242 98.0706 43.527 96.7363 44.9238C95.5412 46.1672 94.0571 46.7882 92.2856 46.7882C90.3734 46.7882 88.9998 46.1185 88.1632 44.7792H88.1027V52.2354H84.8773V36.9735C84.8773 35.4602 84.8365 33.907 84.7578 32.314H87.5944L87.7744 34.5575H87.8349C88.9105 32.8671 90.5428 32.0234 92.7334 32.0234C94.4459 32.0234 95.8755 32.6828 97.0192 34.0029C98.1659 35.3245 98.7378 37.062 98.7378 39.217ZM95.4519 39.3321C95.4519 37.9544 95.1343 36.8187 94.4958 35.9248C93.7984 34.9926 92.862 34.5265 91.688 34.5265C90.8923 34.5265 90.1692 34.7861 89.5232 35.2979C88.8757 35.8142 88.4521 36.4883 88.2539 37.3231C88.1541 37.7125 88.1042 38.0311 88.1042 38.2819V40.6419C88.1042 41.6714 88.4279 42.5402 89.0754 43.2497C89.7229 43.9591 90.564 44.3131 91.5988 44.3131C92.8136 44.3131 93.7591 43.8559 94.4353 42.9443C95.1131 42.0313 95.4519 40.8277 95.4519 39.3321Z" fill="white"/>
<path d="M115.432 39.217C115.432 41.6242 114.764 43.527 113.429 44.9238C112.235 46.1672 110.751 46.7882 108.979 46.7882C107.067 46.7882 105.694 46.1185 104.858 44.7792H104.798V52.2354H101.573V36.9735C101.573 35.4602 101.532 33.907 101.453 32.314H104.29L104.47 34.5575H104.53C105.604 32.8671 107.237 32.0234 109.429 32.0234C111.14 32.0234 112.569 32.6828 113.716 34.0029C114.858 35.3245 115.432 37.062 115.432 39.217ZM112.146 39.3321C112.146 37.9544 111.827 36.8187 111.188 35.9248C110.491 34.9926 109.557 34.5265 108.382 34.5265C107.585 34.5265 106.863 34.7861 106.215 35.2979C105.568 35.8142 105.146 36.4883 104.948 37.3231C104.849 37.7125 104.798 38.0311 104.798 38.2819V40.6419C104.798 41.6714 105.122 42.5402 105.766 43.2497C106.414 43.9577 107.255 44.3131 108.293 44.3131C109.507 44.3131 110.453 43.8559 111.129 42.9443C111.807 42.0313 112.146 40.8277 112.146 39.3321Z" fill="white"/>
<path d="M134.101 40.963C134.101 42.6327 133.507 43.9912 132.313 45.0399C131.001 46.186 129.175 46.7583 126.829 46.7583C124.663 46.7583 122.926 46.3512 121.611 45.5355L122.359 42.9144C123.775 43.7493 125.328 44.1682 127.021 44.1682C128.236 44.1682 129.181 43.8997 129.861 43.3658C130.537 42.8318 130.874 42.115 130.874 41.2211C130.874 40.4246 130.596 39.7535 130.038 39.2092C129.483 38.665 128.555 38.159 127.26 37.6915C123.735 36.4097 121.974 34.532 121.974 32.0629C121.974 30.4492 122.592 29.1261 123.828 28.0966C125.059 27.0656 126.702 26.5508 128.756 26.5508C130.588 26.5508 132.11 26.862 133.325 27.483L132.519 30.0465C131.384 29.4447 130.101 29.1438 128.666 29.1438C127.531 29.1438 126.644 29.4167 126.009 29.9595C125.472 30.4448 125.203 31.0363 125.203 31.7369C125.203 32.5127 125.51 33.1544 126.127 33.6588C126.664 34.1249 127.64 34.6294 129.056 35.1736C130.788 35.8536 132.06 36.6486 132.879 37.5602C133.694 38.4688 134.101 39.606 134.101 40.963Z" fill="white"/>
<path d="M144.767 34.6733H141.212V41.5454C141.212 43.2932 141.838 44.1664 143.094 44.1664C143.67 44.1664 144.148 44.1178 144.526 44.0204L144.615 46.4084C143.98 46.64 143.143 46.7565 142.107 46.7565C140.833 46.7565 139.838 46.3775 139.119 45.6208C138.404 44.8626 138.044 43.5912 138.044 41.805V34.6704H135.926V32.3104H138.044V29.7188L141.212 28.7866V32.3104H144.767V34.6733Z" fill="white"/>
<path d="M160.807 39.274C160.807 41.4497 160.168 43.2359 158.895 44.6327C157.559 46.0708 155.786 46.7877 153.576 46.7877C151.446 46.7877 149.75 46.0989 148.485 44.7212C147.22 43.3436 146.588 41.6045 146.588 39.5086C146.588 37.3152 147.238 35.5187 148.544 34.1219C149.847 32.7236 151.604 32.0244 153.815 32.0244C155.945 32.0244 157.659 32.7132 158.952 34.0924C160.19 35.4302 160.807 37.1574 160.807 39.274ZM157.461 39.3758C157.461 38.0704 157.175 36.9509 156.595 36.0172C155.919 34.8874 154.952 34.3239 153.7 34.3239C152.403 34.3239 151.418 34.8889 150.742 36.0172C150.163 36.9524 149.877 38.0896 149.877 39.4348C149.877 40.7402 150.163 41.8597 150.742 42.7919C151.44 43.9218 152.414 44.4852 153.671 44.4852C154.902 44.4852 155.869 43.91 156.566 42.7624C157.161 41.811 157.461 40.6797 157.461 39.3758Z" fill="white"/>
<path d="M171.29 35.0796C170.971 35.0221 170.631 34.9926 170.274 34.9926C169.139 34.9926 168.262 35.41 167.644 36.2464C167.107 36.9839 166.838 37.9161 166.838 39.0415V46.4681H163.614L163.644 36.7715C163.644 35.1401 163.604 33.6548 163.523 32.3155H166.333L166.451 35.0236H166.54C166.88 34.0929 167.417 33.3436 168.153 32.7816C168.871 32.2757 169.647 32.0234 170.484 32.0234C170.782 32.0234 171.051 32.0441 171.29 32.081V35.0796Z" fill="white"/>
<path d="M185.714 38.7211C185.714 39.2846 185.676 39.7595 185.596 40.1474H175.92C175.958 41.5457 176.425 42.6151 177.324 43.3526C178.139 44.0119 179.194 44.3423 180.489 44.3423C181.921 44.3423 183.228 44.1196 184.404 43.6727L184.909 45.8557C183.535 46.4398 181.914 46.7304 180.042 46.7304C177.791 46.7304 176.024 46.0843 174.738 44.7937C173.455 43.5031 172.812 41.7699 172.812 39.5958C172.812 37.4615 173.41 35.6841 174.607 34.2666C175.859 32.7533 177.552 31.9966 179.682 31.9966C181.774 31.9966 183.358 32.7533 184.434 34.2666C185.286 35.4687 185.714 36.9555 185.714 38.7211ZM182.638 37.9054C182.659 36.9732 182.449 36.1679 182.012 35.4879C181.454 34.6132 180.596 34.1766 179.442 34.1766C178.387 34.1766 177.529 34.6029 176.874 35.4584C176.337 36.1384 176.018 36.9541 175.92 37.904H182.638V37.9054Z" fill="white"/>
<path d="M75.1123 14.7621C75.1123 16.4982 74.5783 17.805 73.5118 18.6827C72.5239 19.4924 71.12 19.8981 69.3016 19.8981C68.3999 19.8981 67.6284 19.8597 66.9824 19.783V10.2973C67.8251 10.1645 68.7328 10.0967 69.7131 10.0967C71.4452 10.0967 72.7508 10.464 73.6313 11.1985C74.6176 12.0289 75.1123 13.2163 75.1123 14.7621ZM73.4407 14.8049C73.4407 13.6795 73.1351 12.8166 72.5239 12.2148C71.9127 11.6145 71.0201 11.3136 69.8447 11.3136C69.3455 11.3136 68.9203 11.346 68.5679 11.4139V18.6251C68.763 18.6546 69.12 18.6679 69.6389 18.6679C70.8522 18.6679 71.7887 18.339 72.4483 17.6811C73.1078 17.0233 73.4407 16.0645 73.4407 14.8049Z" fill="white"/>
<path d="M83.9808 16.2799C83.9808 17.3493 83.6676 18.2254 83.0413 18.9128C82.3848 19.6193 81.5149 19.9718 80.4287 19.9718C79.3818 19.9718 78.5483 19.634 77.9265 18.9555C77.3062 18.2785 76.9961 17.4245 76.9961 16.3949C76.9961 15.3182 77.3153 14.4347 77.9567 13.7488C78.5982 13.0629 79.4605 12.7192 80.5467 12.7192C81.5936 12.7192 82.4347 13.057 83.0716 13.734C83.6767 14.3919 83.9808 15.2415 83.9808 16.2799ZM82.3364 16.33C82.3364 15.6884 82.1942 15.1382 81.9113 14.6795C81.5784 14.1249 81.1049 13.8476 80.4892 13.8476C79.8523 13.8476 79.3682 14.1249 79.0354 14.6795C78.751 15.1382 78.6103 15.6973 78.6103 16.3581C78.6103 16.9997 78.7525 17.5499 79.0354 18.0086C79.3788 18.5632 79.8568 18.8405 80.4741 18.8405C81.0792 18.8405 81.5542 18.5588 81.8961 17.9938C82.1896 17.5263 82.3364 16.9717 82.3364 16.33Z" fill="white"/>
<path d="M95.8638 12.8594L93.6324 19.8125H92.1801L91.2558 16.7932C91.0213 16.0395 90.8307 15.2902 90.6824 14.5468H90.6537C90.516 15.3108 90.3254 16.0587 90.0803 16.7932L89.0985 19.8125H87.6295L85.5312 12.8594H87.1606L87.9669 16.1649C88.162 16.9466 88.3224 17.6915 88.451 18.3965H88.4797C88.5977 17.8154 88.7929 17.0749 89.0682 16.1796L90.0803 12.8609H91.3722L92.342 16.1088C92.5765 16.9009 92.7671 17.6635 92.9138 18.398H92.9577C93.0651 17.6826 93.227 16.9201 93.4418 16.1088L94.3071 12.8609H95.8638V12.8594Z" fill="white"/>
<path d="M104.079 19.8126H102.494V15.8301C102.494 14.6029 102.016 13.9893 101.056 13.9893C100.586 13.9893 100.206 14.1574 99.9113 14.4952C99.6193 14.833 99.471 15.2312 99.471 15.687V19.8111H97.8856V14.8462C97.8856 14.2356 97.8659 13.5733 97.8281 12.8565H99.2214L99.2956 13.9435H99.3394C99.524 13.6058 99.7993 13.327 100.161 13.1043C100.591 12.8447 101.072 12.7134 101.598 12.7134C102.264 12.7134 102.817 12.9228 103.258 13.3432C103.805 13.858 104.079 14.6265 104.079 15.6472V19.8126Z" fill="white"/>
<path d="M108.455 19.8125H106.871V9.66895H108.455V19.8125Z" fill="white"/>
<path d="M117.784 16.2799C117.784 17.3493 117.47 18.2254 116.844 18.9128C116.187 19.6193 115.316 19.9718 114.231 19.9718C113.183 19.9718 112.349 19.634 111.729 18.9555C111.109 18.2785 110.799 17.4245 110.799 16.3949C110.799 15.3182 111.118 14.4347 111.759 13.7488C112.401 13.0629 113.263 12.7192 114.348 12.7192C115.396 12.7192 116.236 13.057 116.874 13.734C117.479 14.3919 117.784 15.2415 117.784 16.2799ZM116.138 16.33C116.138 15.6884 115.995 15.1382 115.712 14.6795C115.381 14.1249 114.906 13.8476 114.292 13.8476C113.654 13.8476 113.169 14.1249 112.838 14.6795C112.554 15.1382 112.413 15.6973 112.413 16.3581C112.413 16.9997 112.555 17.5499 112.838 18.0086C113.182 18.5632 113.66 18.8405 114.277 18.8405C114.882 18.8405 115.355 18.5588 115.697 17.9938C115.992 17.5263 116.138 16.9717 116.138 16.33Z" fill="white"/>
<path d="M125.458 19.814H124.035L123.917 19.0131H123.873C123.386 19.6517 122.691 19.9718 121.79 19.9718C121.116 19.9718 120.572 19.7609 120.162 19.342C119.79 18.9614 119.604 18.488 119.604 17.926C119.604 17.0764 119.967 16.4289 120.697 15.9805C121.426 15.5321 122.452 15.3123 123.773 15.3226V15.1928C123.773 14.2768 123.28 13.8196 122.292 13.8196C121.588 13.8196 120.968 13.9922 120.433 14.3344L120.11 13.3196C120.773 12.9198 121.591 12.7192 122.557 12.7192C124.42 12.7192 125.355 13.678 125.355 15.5955V18.1561C125.355 18.8508 125.39 19.4039 125.458 19.814ZM123.812 17.4245V16.3522C122.063 16.3227 121.189 16.7902 121.189 17.7534C121.189 18.1163 121.289 18.3877 121.493 18.5691C121.697 18.7505 121.957 18.8405 122.268 18.8405C122.616 18.8405 122.941 18.7328 123.237 18.5189C123.535 18.3036 123.718 18.0307 123.786 17.6959C123.803 17.6207 123.812 17.5292 123.812 17.4245Z" fill="white"/>
<path d="M134.47 19.8125H133.063L132.989 18.6959H132.945C132.496 19.5455 131.73 19.9703 130.654 19.9703C129.795 19.9703 129.08 19.6414 128.512 18.9836C127.945 18.3257 127.662 17.4717 127.662 16.423C127.662 15.2975 127.969 14.386 128.586 13.6898C129.184 13.0408 129.916 12.7163 130.788 12.7163C131.745 12.7163 132.415 13.0305 132.797 13.6603H132.827V9.66895H134.414V17.9393C134.414 18.6163 134.432 19.2402 134.47 19.8125ZM132.827 16.8802V15.7209C132.827 15.5203 132.812 15.358 132.783 15.2341C132.694 14.8624 132.502 14.5497 132.21 14.2975C131.915 14.0453 131.559 13.9184 131.149 13.9184C130.558 13.9184 130.095 14.147 129.754 14.6058C129.417 15.0645 129.246 15.6501 129.246 16.3654C129.246 17.0528 129.408 17.6103 129.733 18.0396C130.077 18.4968 130.539 18.7254 131.119 18.7254C131.639 18.7254 132.055 18.5352 132.372 18.1531C132.677 17.8006 132.827 17.3758 132.827 16.8802Z" fill="white"/>
<path d="M148.026 16.2799C148.026 17.3493 147.713 18.2254 147.086 18.9128C146.43 19.6193 145.561 19.9718 144.474 19.9718C143.428 19.9718 142.595 19.634 141.971 18.9555C141.351 18.2785 141.041 17.4245 141.041 16.3949C141.041 15.3182 141.36 14.4347 142.002 13.7488C142.643 13.0629 143.505 12.7192 144.593 12.7192C145.638 12.7192 146.481 13.057 147.117 13.734C147.722 14.3919 148.026 15.2415 148.026 16.2799ZM146.383 16.33C146.383 15.6884 146.241 15.1382 145.958 14.6795C145.623 14.1249 145.151 13.8476 144.534 13.8476C143.899 13.8476 143.415 14.1249 143.08 14.6795C142.796 15.1382 142.655 15.6973 142.655 16.3581C142.655 16.9997 142.797 17.5499 143.08 18.0086C143.424 18.5632 143.902 18.8405 144.519 18.8405C145.124 18.8405 145.601 18.5588 145.943 17.9938C146.235 17.5263 146.383 16.9717 146.383 16.33Z" fill="white"/>
<path d="M156.556 19.8126H154.972V15.8301C154.972 14.6029 154.494 13.9893 153.533 13.9893C153.063 13.9893 152.683 14.1574 152.39 14.4952C152.096 14.833 151.95 15.2312 151.95 15.687V19.8111H150.363V14.8462C150.363 14.2356 150.344 13.5733 150.307 12.8565H151.698L151.773 13.9435H151.816C152.003 13.6058 152.278 13.327 152.638 13.1043C153.069 12.8447 153.549 12.7134 154.077 12.7134C154.741 12.7134 155.294 12.9228 155.735 13.3432C156.284 13.858 156.556 14.6265 156.556 15.6472V19.8126Z" fill="white"/>
<path d="M167.224 14.0184H165.478V17.3962C165.478 18.2546 165.788 18.6839 166.403 18.6839C166.687 18.6839 166.923 18.6603 167.109 18.6116L167.15 19.7842C166.837 19.8993 166.425 19.9568 165.919 19.9568C165.292 19.9568 164.805 19.7709 164.453 19.3992C164.099 19.0275 163.923 18.4021 163.923 17.5245V14.0184H162.881V12.8606H163.923V11.5862L165.477 11.1289V12.8591H167.223V14.0184H167.224Z" fill="white"/>
<path d="M175.619 19.8125H174.032V15.8595C174.032 14.6131 173.554 13.9892 172.597 13.9892C171.861 13.9892 171.359 14.3506 171.084 15.0733C171.037 15.2253 171.01 15.4111 171.01 15.6294V19.811H169.426V9.66895H171.01V13.8594H171.04C171.539 13.0968 172.255 12.7163 173.182 12.7163C173.839 12.7163 174.382 12.9257 174.813 13.3461C175.35 13.8697 175.619 14.6485 175.619 15.6781V19.8125Z" fill="white"/>
<path d="M184.276 16.0081C184.276 16.2854 184.255 16.5184 184.217 16.7087H179.462C179.483 17.3961 179.71 17.9197 180.15 18.2825C180.553 18.607 181.072 18.7693 181.707 18.7693C182.41 18.7693 183.052 18.6601 183.63 18.4404L183.878 19.5142C183.202 19.8003 182.406 19.9434 181.485 19.9434C180.38 19.9434 179.51 19.6263 178.881 18.992C178.249 18.3578 177.936 17.5067 177.936 16.4388C177.936 15.3901 178.228 14.5169 178.816 13.8207C179.43 13.0773 180.261 12.7056 181.309 12.7056C182.335 12.7056 183.114 13.0773 183.64 13.8207C184.065 14.4107 184.276 15.1408 184.276 16.0081ZM182.763 15.6084C182.775 15.1496 182.671 14.7543 182.456 14.421C182.181 13.9918 181.761 13.7764 181.194 13.7764C180.677 13.7764 180.255 13.9859 179.932 14.4062C179.669 14.7411 179.513 15.1408 179.462 15.6084H182.763Z" fill="white"/>
</svg>
