<svg width="24" height="25" viewBox="0 0 24 25" fill="none" xmlns="http://www.w3.org/2000/svg">
<path fill-rule="evenodd" clip-rule="evenodd" d="M10.7574 3.79471C11.8826 2.66949 13.4087 2.03735 15 2.03735H18C18.5523 2.03735 19 2.48507 19 3.03735V7.03735C19 7.58964 18.5523 8.03735 18 8.03735H15V9.03735H18C18.3079 9.03735 18.5987 9.17922 18.7882 9.42194C18.9777 9.66466 19.0448 9.98115 18.9701 10.2799L17.9701 14.2799C17.8589 14.7251 17.4589 15.0374 17 15.0374H15V21.0374C15 21.5896 14.5523 22.0374 14 22.0374H10C9.44772 22.0374 9 21.5896 9 21.0374V15.0374H7C6.44772 15.0374 6 14.5896 6 14.0374V10.0374C6 9.48507 6.44772 9.03735 7 9.03735H9V8.03735C9 6.44605 9.63214 4.91993 10.7574 3.79471ZM15 4.03735C13.9391 4.03735 12.9217 4.45878 12.1716 5.20893C11.4214 5.95907 11 6.97649 11 8.03735V10.0374C11 10.5896 10.5523 11.0374 10 11.0374H8V13.0374H10C10.5523 13.0374 11 13.4851 11 14.0374V20.0374H13V14.0374C13 13.4851 13.4477 13.0374 14 13.0374H16.2192L16.7192 11.0374H14C13.4477 11.0374 13 10.5896 13 10.0374V8.03735C13 7.50692 13.2107 6.99821 13.5858 6.62314C13.9609 6.24807 14.4696 6.03735 15 6.03735H17V4.03735H15Z" fill="#EFEFEF"/>
</svg>
