<svg width="205" height="59" viewBox="0 0 205 59" fill="none" xmlns="http://www.w3.org/2000/svg">
<path d="M196.537 59H7.69433C3.54168 59 0.140625 55.6794 0.140625 51.625V7.37501C0.140625 3.3206 3.54168 1.02044e-05 7.69433 1.02044e-05H196.537C200.69 1.02044e-05 204.091 3.3206 204.091 7.37501V51.625C204.091 55.6794 200.69 59 196.537 59Z" fill="black"/>
<path d="M196.537 1.18185C200.034 1.18185 202.88 3.96038 202.88 7.37501V51.625C202.88 55.0396 200.034 57.8182 196.537 57.8182H7.69433C4.19697 57.8182 1.35111 55.0396 1.35111 51.625V7.37501C1.35111 3.96038 4.19697 1.18185 7.69433 1.18185H196.537ZM196.537 1.02044e-05H7.69433C3.54168 1.02044e-05 0.140625 3.3206 0.140625 7.37501V51.625C0.140625 55.6794 3.54168 59 7.69433 59H196.537C200.69 59 204.091 55.6794 204.091 51.625V7.37501C204.091 3.3206 200.69 1.02044e-05 196.537 1.02044e-05Z" fill="#A6A6A6"/>
<path d="M71.772 15.1106C71.772 16.3422 71.3943 17.3286 70.6503 18.0643C69.7948 18.9364 68.6807 19.3752 67.3153 19.3752C66.0104 19.3752 64.8963 18.929 63.9823 18.0495C63.0664 17.1572 62.6094 16.062 62.6094 14.7511C62.6094 13.4402 63.0664 12.345 63.9823 11.46C64.8963 10.5731 66.0104 10.127 67.3153 10.127C67.965 10.127 68.5844 10.2579 69.1754 10.5012C69.7646 10.7465 70.2443 11.0783 70.5918 11.4876L69.8024 12.2657C69.1962 11.5669 68.371 11.2221 67.3153 11.2221C66.3636 11.2221 65.5383 11.5466 64.8377 12.2012C64.1447 12.8575 63.7972 13.7075 63.7972 14.7511C63.7972 15.7946 64.1447 16.652 64.8377 17.3084C65.5383 17.9555 66.3636 18.2874 67.3153 18.2874C68.3256 18.2874 69.1754 17.9555 69.8458 17.301C70.2877 16.8677 70.5389 16.2703 70.605 15.507H67.3153V14.4413H71.704C71.7569 14.6718 71.772 14.8949 71.772 15.1106Z" fill="white" stroke="white" stroke-width="0.16" stroke-miterlimit="10"/>
<path d="M78.7348 11.4156H74.6124V14.2181H78.3288V15.2837H74.6124V18.0862H78.7348V19.1722H73.4453V10.3296H78.7348V11.4156Z" fill="white" stroke="white" stroke-width="0.16" stroke-miterlimit="10"/>
<path d="M83.6468 19.1722H82.4798V11.4156H79.9512V10.3296H86.1773V11.4156H83.6468V19.1722Z" fill="white" stroke="white" stroke-width="0.16" stroke-miterlimit="10"/>
<path d="M90.6934 19.1722V10.3296H91.8585V19.1722H90.6934Z" fill="white" stroke="white" stroke-width="0.16" stroke-miterlimit="10"/>
<path d="M97.016 19.1722H95.8583V11.4156H93.3203V10.3296H99.554V11.4156H97.016V19.1722Z" fill="white" stroke="white" stroke-width="0.16" stroke-miterlimit="10"/>
<path d="M111.35 18.0343C110.456 18.9285 109.35 19.3747 108.03 19.3747C106.702 19.3747 105.596 18.9285 104.702 18.0343C103.811 17.1419 103.367 16.0467 103.367 14.7506C103.367 13.4544 103.811 12.3592 104.702 11.4669C105.596 10.5727 106.702 10.1265 108.03 10.1265C109.342 10.1265 110.449 10.5727 111.342 11.4742C112.241 12.374 112.685 13.4618 112.685 14.7506C112.685 16.0467 112.241 17.1419 111.35 18.0343ZM105.565 17.2931C106.238 17.955 107.055 18.2869 108.03 18.2869C108.997 18.2869 109.822 17.955 110.487 17.2931C111.157 16.6312 111.497 15.7812 111.497 14.7506C111.497 13.7199 111.157 12.87 110.487 12.2081C109.822 11.5462 108.997 11.2143 108.03 11.2143C107.055 11.2143 106.238 11.5462 105.565 12.2081C104.895 12.87 104.555 13.7199 104.555 14.7506C104.555 15.7812 104.895 16.6312 105.565 17.2931Z" fill="white" stroke="white" stroke-width="0.16" stroke-miterlimit="10"/>
<path d="M114.314 19.1717V10.3291H115.731L120.135 17.2063H120.186L120.135 15.5063V10.3291H121.3V19.1717H120.084L115.472 11.9553H115.421L115.472 13.6626V19.1717H114.314Z" fill="white" stroke="white" stroke-width="0.16" stroke-miterlimit="10"/>
<path d="M103.074 32.0843C99.5258 32.0843 96.6271 34.7209 96.6271 38.3586C96.6271 41.9668 99.5258 44.631 103.074 44.631C106.63 44.631 109.529 41.9668 109.529 38.3586C109.529 34.7209 106.63 32.0843 103.074 32.0843ZM103.074 42.1604C101.127 42.1604 99.4521 40.5914 99.4521 38.3586C99.4521 36.0963 101.127 34.5549 103.074 34.5549C105.021 34.5549 106.704 36.0963 106.704 38.3586C106.704 40.5914 105.021 42.1604 103.074 42.1604ZM89.0073 32.0843C85.4514 32.0843 82.5602 34.7209 82.5602 38.3586C82.5602 41.9668 85.4514 44.631 89.0073 44.631C92.5613 44.631 95.4543 41.9668 95.4543 38.3586C95.4543 34.7209 92.5613 32.0843 89.0073 32.0843ZM89.0073 42.1604C87.0584 42.1604 85.3777 40.5914 85.3777 38.3586C85.3777 36.0963 87.0584 34.5549 89.0073 34.5549C90.9542 34.5549 92.6293 36.0963 92.6293 38.3586C92.6293 40.5914 90.9542 42.1604 89.0073 42.1604ZM72.2683 34.0073V36.6734H78.789C78.5983 38.1631 78.0884 39.2583 77.3066 40.0216C76.3548 40.9435 74.8724 41.9668 72.2683 41.9668C68.2553 41.9668 65.113 38.8048 65.113 34.8868C65.113 30.9688 68.2553 27.8068 72.2683 27.8068C74.4381 27.8068 76.0168 28.6347 77.1819 29.7077L79.1062 27.8289C77.4765 26.3097 75.3086 25.1426 72.2683 25.1426C66.7654 25.1426 62.1406 29.5141 62.1406 34.8868C62.1406 40.2595 66.7654 44.631 72.2683 44.631C75.2425 44.631 77.4765 43.6796 79.2328 41.8949C81.0324 40.1378 81.5933 37.6672 81.5933 35.6722C81.5933 35.0527 81.5404 34.483 81.446 34.0073H72.2683ZM140.716 36.0742C140.185 34.6711 138.548 32.0843 135.213 32.0843C131.909 32.0843 129.157 34.6268 129.157 38.3586C129.157 41.8728 131.88 44.631 135.531 44.631C138.482 44.631 140.185 42.8739 140.886 41.8506L138.696 40.4254C137.965 41.469 136.97 42.1604 135.531 42.1604C134.101 42.1604 133.076 41.5206 132.418 40.2595L141.013 36.7877L140.716 36.0742ZM131.954 38.1631C131.88 35.7441 133.878 34.5051 135.31 34.5051C136.431 34.5051 137.383 35.0527 137.7 35.8363L131.954 38.1631ZM124.969 44.2494H127.794V25.8119H124.969V44.2494ZM120.342 33.4819H120.247C119.613 32.7481 118.403 32.0843 116.869 32.0843C113.651 32.0843 110.709 34.8426 110.709 38.3789C110.709 41.8949 113.651 44.631 116.869 44.631C118.403 44.631 119.613 43.9617 120.247 43.2058H120.342V44.1056C120.342 46.5043 119.029 47.793 116.913 47.793C115.187 47.793 114.116 46.5762 113.674 45.5529L111.217 46.554C111.925 48.2171 113.8 50.2637 116.913 50.2637C120.225 50.2637 123.02 48.3609 123.02 43.7313V32.466H120.342V33.4819ZM117.111 42.1604C115.164 42.1604 113.534 40.5692 113.534 38.3789C113.534 36.1682 115.164 34.5549 117.111 34.5549C119.029 34.5549 120.542 36.1682 120.542 38.3789C120.542 40.5692 119.029 42.1604 117.111 42.1604ZM153.943 25.8119H147.186V44.2494H150.003V37.2634H153.943C157.072 37.2634 160.14 35.0527 160.14 31.5367C160.14 28.0225 157.064 25.8119 153.943 25.8119ZM154.016 34.6987H150.003V28.3765H154.016C156.12 28.3765 157.321 30.082 157.321 31.5367C157.321 32.9638 156.12 34.6987 154.016 34.6987ZM171.433 32.0493C169.398 32.0493 167.281 32.9269 166.41 34.8721L168.91 35.8953C169.449 34.8721 170.438 34.5402 171.484 34.5402C172.946 34.5402 174.428 35.3975 174.451 36.9112V37.1048C173.941 36.8172 172.85 36.3913 171.507 36.3913C168.814 36.3913 166.07 37.8386 166.07 40.5397C166.07 43.0104 168.276 44.6015 170.755 44.6015C172.651 44.6015 173.697 43.7663 174.355 42.7946H174.451V44.2199H177.172V37.1472C177.172 33.8783 174.672 32.0493 171.433 32.0493ZM171.093 42.153C170.172 42.153 168.888 41.7068 168.888 40.5914C168.888 39.1643 170.489 38.6167 171.875 38.6167C173.116 38.6167 173.698 38.8841 174.451 39.2362C174.23 40.9435 172.725 42.153 171.093 42.153ZM187.086 32.4531L183.848 40.4457H183.751L180.403 32.4531H177.365L182.396 43.6225L179.525 49.8378H182.469L190.221 32.4531H187.086ZM161.689 44.2494H164.514V25.8119H161.689V44.2494Z" fill="white"/>
<path d="M15.9037 11.1192C15.4599 11.5727 15.2031 12.2789 15.2031 13.1934V45.813C15.2031 46.7275 15.4599 47.4337 15.9037 47.8873L16.0133 47.9868L34.7351 29.7153V29.2838L16.0133 11.0123L15.9037 11.1192Z" fill="url(#paint0_linear_157_743)"/>
<path d="M40.9681 35.8091L34.7344 29.7155V29.284L40.9756 23.1905L41.1154 23.2697L48.5067 27.3758C50.616 28.541 50.616 30.4585 48.5067 31.6311L41.1154 35.7298L40.9681 35.8091Z" fill="url(#paint1_linear_157_743)"/>
<path d="M41.1147 35.7304L34.7337 29.5004L15.9023 47.8881C16.6029 48.6071 17.7454 48.6938 19.0447 47.9747L41.1147 35.7304Z" fill="url(#paint2_linear_157_743)"/>
<path d="M41.1147 23.27L19.0447 11.0256C17.7454 10.3139 16.6029 10.4006 15.9023 11.1197L34.7337 29.5L41.1147 23.27Z" fill="url(#paint3_linear_157_743)"/>
<defs>
<linearGradient id="paint0_linear_157_743" x1="33.0728" y1="46.1527" x2="8.32589" y2="20.8061" gradientUnits="userSpaceOnUse">
<stop stop-color="#00A0FF"/>
<stop offset="0.0066" stop-color="#00A1FF"/>
<stop offset="0.2601" stop-color="#00BEFF"/>
<stop offset="0.5122" stop-color="#00D2FF"/>
<stop offset="0.7604" stop-color="#00DFFF"/>
<stop offset="1" stop-color="#00E3FF"/>
</linearGradient>
<linearGradient id="paint1_linear_157_743" x1="51.2534" y1="29.4977" x2="14.6982" y2="29.4977" gradientUnits="userSpaceOnUse">
<stop stop-color="#FFE000"/>
<stop offset="0.4087" stop-color="#FFBD00"/>
<stop offset="0.7754" stop-color="#FFA500"/>
<stop offset="1" stop-color="#FF9C00"/>
</linearGradient>
<linearGradient id="paint2_linear_157_743" x1="37.6449" y1="26.1136" x2="4.08605" y2="-8.25844" gradientUnits="userSpaceOnUse">
<stop stop-color="#FF3A44"/>
<stop offset="1" stop-color="#C31162"/>
</linearGradient>
<linearGradient id="paint3_linear_157_743" x1="11.1621" y1="58.7401" x2="26.1476" y2="43.3916" gradientUnits="userSpaceOnUse">
<stop stop-color="#32A071"/>
<stop offset="0.0685" stop-color="#2DA771"/>
<stop offset="0.4762" stop-color="#15CF74"/>
<stop offset="0.8009" stop-color="#06E775"/>
<stop offset="1" stop-color="#00F076"/>
</linearGradient>
</defs>
</svg>
