<svg width="317" height="35" viewBox="0 0 317 35" fill="none" xmlns="http://www.w3.org/2000/svg">
<path d="M63.5943 0.977825C63.5943 0.972233 63.5996 0.966641 63.5996 0.96105C63.5996 0.564053 62.1913 0.239746 60.4584 0.239746C58.7569 0.239746 57.3748 0.552871 57.3224 0.938684L48.9983 17.0366C42.2838 32.3103 73.0389 33.772 73.0389 20.3748L63.5943 0.977825Z" fill="url(#paint0_linear_28_551)"/>
<path d="M23.969 12.0696H27.1886L35.1406 27.0173L43.1258 12.0696H46.3121L36.9138 29.5606H33.3673L23.969 12.0696Z" fill="white" stroke="white" stroke-width="0.9708" stroke-miterlimit="10" stroke-linecap="round" stroke-linejoin="round"/>
<path d="M94.3235 19.7164C94.3235 16.2416 92.0238 14.4903 88.2446 14.4903C84.1383 14.4903 80.9853 16.5762 80.9188 20.4749V29.5049H78.0261V12.0139H80.9188V15.4217C82.4981 13.0401 85.3242 11.7517 88.904 11.7517C93.9633 11.7517 97.2162 14.5628 97.2162 19.259V29.5104H94.3235V19.7164Z" fill="white" stroke="white" stroke-width="0.9708" stroke-miterlimit="10" stroke-linecap="round" stroke-linejoin="round"/>
<path d="M107.668 12.3427H112.201V14.8916H107.668V23.1575C107.668 26.002 108.228 27.0283 110.394 27.0283C111.115 27.0283 111.807 26.9279 112.467 26.794L112.007 29.4712C111.447 29.6051 110.594 29.7055 109.807 29.7055C105.994 29.7055 104.781 27.7868 104.781 23.4531V14.8861H101.001V12.3372H104.781V8.56677L107.673 6.41943V12.3427H107.668Z" fill="white" stroke="white" stroke-width="0.9708" stroke-miterlimit="10" stroke-linecap="round" stroke-linejoin="round"/>
<path d="M131.684 19.3873C131.684 16.3754 129.977 14.4902 126.558 14.4902C123.011 14.4902 120.28 16.6041 120.219 20.0789V29.5048H117.326V12.0138H120.219V15.1205C121.665 12.9731 124.131 11.7461 127.217 11.7461C130.67 11.7461 133.036 13.3691 133.989 15.9459C135.369 13.3022 138.129 11.7461 141.581 11.7461C146.213 11.7461 148.94 14.691 148.94 18.7905V29.5048H146.047V19.3873C146.047 16.3754 144.34 14.4902 140.921 14.4902C137.502 14.4902 134.643 16.6376 134.582 20.0789V29.5048H131.689V19.3873H131.684Z" fill="white" stroke="white" stroke-width="0.9708" stroke-miterlimit="10" stroke-linecap="round" stroke-linejoin="round"/>
<path d="M170.291 25.5392C168.517 28.2834 165.098 29.7726 161.192 29.7726C157.019 29.7726 154.426 27.4579 154.426 24.5464C154.426 19.153 161.918 18.361 168.983 18.361C169.277 18.361 169.609 18.361 169.936 18.361C169.476 15.3826 166.883 14.4902 163.597 14.4902C160.87 14.4902 158.21 15.5165 156.764 17.1005L154.958 14.8528C156.997 12.9676 160.71 11.7461 163.929 11.7461C169.482 11.7461 172.967 14.2281 172.967 19.8502V24.05C172.967 26.2978 173.593 26.995 174.907 26.995C175.433 26.995 176.353 26.8946 176.813 26.7328L176.32 29.4435C175.926 29.5773 174.907 29.7056 174.281 29.7056C172.081 29.7056 170.668 28.7128 170.368 26.0356C170.324 25.8683 170.291 25.701 170.291 25.5392ZM170.058 20.6087C164.178 20.6087 157.507 20.8709 157.507 24.2787C157.507 26.1974 159.38 27.1232 161.58 27.1232C165.852 27.1232 169.858 24.9759 170.058 21.2055V20.6087V20.6087Z" fill="white" stroke="white" stroke-width="0.9708" stroke-miterlimit="10" stroke-linecap="round" stroke-linejoin="round"/>
<path d="M180.443 4.7019H183.336V20.0121C187.309 17.3684 191.221 14.6856 195.2 12.0084H199.406L189.941 18.4225L200.393 29.4994H196.647L187.642 19.9731L183.336 22.8511V29.4994H180.443V4.7019V4.7019Z" fill="white" stroke="white" stroke-width="0.9708" stroke-miterlimit="10" stroke-linecap="round" stroke-linejoin="round"/>
<path d="M231.602 29.5049H228.709V12.0139H231.602V15.4217C233.115 13.0736 235.775 11.7517 239.027 11.7517C239.554 11.7517 240.374 11.7852 240.867 11.8186L241.394 15.0926C240.867 14.8918 239.687 14.7301 238.828 14.7301C234.655 14.7301 231.596 16.6822 231.596 20.8151V29.5049H231.602Z" fill="white" stroke="white" stroke-width="0.9708" stroke-miterlimit="10" stroke-linecap="round" stroke-linejoin="round"/>
<path d="M21.6696 20.7985C21.6696 15.076 17.4969 11.802 11.3182 11.802C5.17271 11.802 1 15.1095 1 20.832C1 26.521 5.20596 29.8285 11.7449 29.8285C15.9176 29.8285 19.4364 28.3393 21.1764 25.6621L18.2893 25.0374C16.2778 26.9059 13.3186 27.1122 11.7504 27.1122C7.41146 27.1122 4.22512 25.1601 3.96467 21.3897C3.90372 20.5252 3.94805 19.7165 4.16417 19.0081C4.9178 16.0297 7.61649 14.5127 11.3293 14.5127C15.0088 14.5127 17.7352 16.0688 18.4611 19.0081H6.5747L7.15101 21.3897H21.6696V20.7985Z" fill="white" stroke="white" stroke-width="0.9708" stroke-miterlimit="10" stroke-linecap="round" stroke-linejoin="round"/>
<path d="M223.357 20.7426C223.357 15.0201 219.184 11.7461 213.005 11.7461C206.86 11.7461 202.687 15.0535 202.687 20.7761C202.687 26.4651 206.893 29.7726 213.432 29.7726C217.605 29.7726 221.123 28.2834 222.863 25.6062L219.976 24.9815C217.965 26.85 215.006 27.0563 213.437 27.0563C209.098 27.0563 205.912 25.1042 205.652 21.3338C205.591 20.4693 205.635 19.6606 205.851 18.9522C206.605 15.9738 209.304 14.4568 213.016 14.4568C216.696 14.4568 219.422 16.0129 220.148 18.9522H208.273L208.849 21.3338H223.368V20.7426H223.357Z" fill="white" stroke="white" stroke-width="0.9708" stroke-miterlimit="10" stroke-linecap="round" stroke-linejoin="round"/>
<path d="M72.6462 20.0398L70.6195 20.9609C70.4813 21.6075 70.2357 22.254 69.8672 22.9119C69.816 22.9863 69.7802 23.0664 69.7239 23.1465C68.7105 24.5597 67.2673 25.6697 65.4043 26.3848C64.437 26.7224 63.3367 26.9684 62.1186 27.1458C61.9088 27.1687 61.7041 27.203 61.4942 27.2144H60.5167H59.5392C59.3242 27.203 59.1195 27.1687 58.9148 27.1458C57.6967 26.9741 56.5912 26.7224 55.629 26.3848C53.7661 25.6697 52.3177 24.5597 51.3095 23.1465C51.2532 23.0721 51.2174 22.992 51.1662 22.9119C50.4292 21.6017 50.1733 20.3087 50.3371 19.0443C50.5111 17.7112 51.0485 16.5154 51.8878 15.4398L51.8673 15.4512C52.6504 14.4901 53.6535 13.7348 54.8818 13.157C56.4889 12.396 58.1931 12.0127 60.0919 11.944H61.1615L62.7737 12.1214C63.9508 12.3102 65.0717 12.6478 66.1567 13.157C67.385 13.7348 68.3881 14.4901 69.1711 15.4512L69.1507 15.4398C69.2837 15.6114 69.4117 15.7888 69.5294 15.9662L55.0098 22.5572L55.0149 22.5801C55.4704 23.0092 56.0538 23.3468 56.7959 23.5756L71.5305 16.9102C71.51 16.8816 71.4896 16.853 71.4742 16.8187C71.4128 16.71 71.3616 16.607 71.2951 16.504L71.2644 16.4868C70.1487 14.8047 68.5365 13.5575 66.4586 12.6192C65.2354 12.0699 63.9867 11.7209 62.6765 11.5378L61.136 11.3948L60.1021 11.4005C58.1061 11.4577 56.2995 11.841 54.5645 12.6249C52.4866 13.5632 50.8745 14.8104 49.7587 16.4925L49.728 16.5097C49.6615 16.6184 49.6103 16.7214 49.5489 16.8244C49.508 16.8873 49.4619 16.956 49.421 17.0189C49.3749 17.099 49.3442 17.1734 49.3032 17.2535C49.2725 17.3107 49.2418 17.3736 49.2111 17.4308C48.0238 19.7537 47.947 22.2025 49.4312 24.6398C51.1713 27.5062 54.3854 29.3428 58.838 29.7204C58.8841 29.7261 58.9301 29.7261 58.9762 29.7261C59.401 29.7605 59.8258 29.7948 60.2659 29.8005C60.3478 29.8005 60.4246 29.7891 60.5116 29.7891C60.5935 29.7891 60.6702 29.8005 60.7572 29.8005C61.1974 29.7948 61.6222 29.7605 62.047 29.7261C62.093 29.7204 62.1391 29.7204 62.1851 29.7204C66.6378 29.3485 69.8518 27.5062 71.5919 24.6398C72.5234 23.095 72.8407 21.5503 72.6462 20.0398Z" fill="white" stroke="white" stroke-width="0.9708" stroke-miterlimit="10" stroke-linecap="round" stroke-linejoin="round"/>
<defs>
<linearGradient id="paint0_linear_28_551" x1="61.3315" y1="-7.97166" x2="60.4845" y2="19.7839" gradientUnits="userSpaceOnUse">
<stop stop-color="white"/>
<stop offset="0.2259" stop-color="white" stop-opacity="0.7741"/>
<stop offset="0.4744" stop-color="white" stop-opacity="0.5256"/>
<stop offset="0.6954" stop-color="white" stop-opacity="0.3046"/>
<stop offset="0.8782" stop-color="white" stop-opacity="0.1218"/>
<stop offset="1" stop-color="white" stop-opacity="0"/>
</linearGradient>
</defs>
</svg>
