<svg width="24" height="25" viewBox="0 0 24 25" fill="none" xmlns="http://www.w3.org/2000/svg">
<path fill-rule="evenodd" clip-rule="evenodd" d="M8 5.03735C7.20435 5.03735 6.44129 5.35342 5.87868 5.91603C5.31607 6.47864 5 7.2417 5 8.03735V16.0374C5 16.833 5.31607 17.5961 5.87868 18.1587C6.44129 18.7213 7.20435 19.0374 8 19.0374H16C16.7956 19.0374 17.5587 18.7213 18.1213 18.1587C18.6839 17.5961 19 16.833 19 16.0374V8.03735C19 7.2417 18.6839 6.47864 18.1213 5.91603C17.5587 5.35342 16.7956 5.03735 16 5.03735H8ZM4.46447 4.50182C5.40215 3.56414 6.67392 3.03735 8 3.03735H16C17.3261 3.03735 18.5979 3.56414 19.5355 4.50182C20.4732 5.4395 21 6.71127 21 8.03735V16.0374C21 17.3634 20.4732 18.6352 19.5355 19.5729C18.5979 20.5106 17.3261 21.0374 16 21.0374H8C6.67392 21.0374 5.40215 20.5106 4.46447 19.5729C3.52678 18.6352 3 17.3634 3 16.0374V8.03735C3 6.71127 3.52678 5.4395 4.46447 4.50182Z" fill="#EFEFEF"/>
<path fill-rule="evenodd" clip-rule="evenodd" d="M9.17157 9.20893C9.92172 8.45878 10.9391 8.03735 12 8.03735C13.0609 8.03735 14.0783 8.45878 14.8284 9.20893C15.5786 9.95907 16 10.9765 16 12.0374C16 13.0982 15.5786 14.1156 14.8284 14.8658C14.0783 15.6159 13.0609 16.0374 12 16.0374C10.9391 16.0374 9.92172 15.6159 9.17157 14.8658C8.42143 14.1156 8 13.0982 8 12.0374C8 10.9765 8.42143 9.95907 9.17157 9.20893ZM12 10.0374C11.4696 10.0374 10.9609 10.2481 10.5858 10.6231C10.2107 10.9982 10 11.5069 10 12.0374C10 12.5678 10.2107 13.0765 10.5858 13.4516C10.9609 13.8266 11.4696 14.0374 12 14.0374C12.5304 14.0374 13.0391 13.8266 13.4142 13.4516C13.7893 13.0765 14 12.5678 14 12.0374C14 11.5069 13.7893 10.9982 13.4142 10.6231C13.0391 10.2481 12.5304 10.0374 12 10.0374Z" fill="#EFEFEF"/>
<path fill-rule="evenodd" clip-rule="evenodd" d="M16.5 6.53735C17.0523 6.53735 17.5 6.98507 17.5 7.53735V7.54735C17.5 8.09964 17.0523 8.54735 16.5 8.54735C15.9477 8.54735 15.5 8.09964 15.5 7.54735V7.53735C15.5 6.98507 15.9477 6.53735 16.5 6.53735Z" fill="#EFEFEF"/>
</svg>
