<svg width="24" height="25" viewBox="0 0 24 25" fill="none" xmlns="http://www.w3.org/2000/svg">
<path fill-rule="evenodd" clip-rule="evenodd" d="M6 5.03735C5.73478 5.03735 5.48043 5.14271 5.29289 5.33025C5.10536 5.51778 5 5.77214 5 6.03735V18.0374C5 18.3026 5.10536 18.5569 5.29289 18.7445C5.48043 18.932 5.73478 19.0374 6 19.0374H18C18.2652 19.0374 18.5196 18.932 18.7071 18.7445C18.8946 18.5569 19 18.3026 19 18.0374V6.03735C19 5.77214 18.8946 5.51778 18.7071 5.33025C18.5196 5.14271 18.2652 5.03735 18 5.03735H6ZM3.87868 3.91603C4.44129 3.35342 5.20435 3.03735 6 3.03735H18C18.7956 3.03735 19.5587 3.35342 20.1213 3.91603C20.6839 4.47864 21 5.2417 21 6.03735V18.0374C21 18.833 20.6839 19.5961 20.1213 20.1587C19.5587 20.7213 18.7957 21.0374 18 21.0374H6C5.20435 21.0374 4.44129 20.7213 3.87868 20.1587C3.31607 19.5961 3 18.833 3 18.0374V6.03735C3 5.2417 3.31607 4.47864 3.87868 3.91603Z" fill="#EFEFEF"/>
<path fill-rule="evenodd" clip-rule="evenodd" d="M8 10.0374C8.55228 10.0374 9 10.4851 9 11.0374V16.0374C9 16.5896 8.55228 17.0374 8 17.0374C7.44772 17.0374 7 16.5896 7 16.0374V11.0374C7 10.4851 7.44772 10.0374 8 10.0374Z" fill="#EFEFEF"/>
<path fill-rule="evenodd" clip-rule="evenodd" d="M8 7.03735C8.55228 7.03735 9 7.48507 9 8.03735V8.04735C9 8.59964 8.55228 9.04735 8 9.04735C7.44772 9.04735 7 8.59964 7 8.04735V8.03735C7 7.48507 7.44772 7.03735 8 7.03735Z" fill="#EFEFEF"/>
<path fill-rule="evenodd" clip-rule="evenodd" d="M12 10.0374C12.5523 10.0374 13 10.4851 13 11.0374V16.0374C13 16.5896 12.5523 17.0374 12 17.0374C11.4477 17.0374 11 16.5896 11 16.0374V11.0374C11 10.4851 11.4477 10.0374 12 10.0374Z" fill="#EFEFEF"/>
<path fill-rule="evenodd" clip-rule="evenodd" d="M11.8787 10.916C12.4413 10.3534 13.2043 10.0374 14 10.0374C14.7957 10.0374 15.5587 10.3534 16.1213 10.916C16.6839 11.4786 17 12.2417 17 13.0374V16.0374C17 16.5896 16.5523 17.0374 16 17.0374C15.4477 17.0374 15 16.5896 15 16.0374V13.0374C15 12.7721 14.8946 12.5178 14.7071 12.3302C14.5196 12.1427 14.2652 12.0374 14 12.0374C13.7348 12.0374 13.4804 12.1427 13.2929 12.3302C13.1054 12.5178 13 12.7721 13 13.0374C13 13.5896 12.5523 14.0374 12 14.0374C11.4477 14.0374 11 13.5896 11 13.0374C11 12.2417 11.3161 11.4786 11.8787 10.916Z" fill="#EFEFEF"/>
</svg>
