<svg width="24" height="25" viewBox="0 0 24 25" fill="none" xmlns="http://www.w3.org/2000/svg">
<path fill-rule="evenodd" clip-rule="evenodd" d="M19.2813 3.91782C19.3669 3.89416 19.4509 3.87115 19.5335 3.84852C20.2553 3.6508 20.8714 3.48203 21.5242 3.16683C21.7013 3.07097 21.9083 3.0278 22.1213 3.05383C22.6229 3.11515 23 3.54108 23 4.04644V4.04744C23 4.13932 22.9874 4.22927 22.9635 4.31524C22.771 5.06613 22.2642 6.09795 21.8666 6.87869C21.7622 7.08382 21.6666 7.26879 21.5791 7.43815C21.4818 7.62641 21.3945 7.79539 21.316 7.95132C21.2575 8.06771 21.2131 8.15885 21.1819 8.22668C21.174 9.52804 20.9949 10.823 20.6491 12.0781L20.6477 12.0829C19.4202 16.4526 16.2063 19.3837 12.313 20.5147L12.3128 20.5148C8.87678 21.5122 4.99799 20.8104 1.52141 18.9155C1.11361 18.6932 0.91252 18.2194 1.03594 17.7717C1.15935 17.324 1.57479 17.0201 2.03887 17.0382C3.44489 17.0929 4.69398 16.7399 5.9483 16.096C4.65004 15.2938 3.71756 14.3588 3.07823 13.3487C2.19609 11.9549 1.91892 10.4923 1.93178 9.18995C1.94456 7.89526 2.24326 6.74248 2.53085 5.92332C2.67562 5.51096 2.82025 5.17562 2.93053 4.93995C2.98576 4.82193 3.03263 4.72837 3.06695 4.66208C3.08411 4.62892 3.09817 4.60253 3.10858 4.58326L3.12143 4.55973L3.12569 4.55203L3.12726 4.54922L3.12791 4.54807C3.12819 4.54757 3.12845 4.5471 3.99998 5.03744L3.12845 4.5471C3.29607 4.24918 3.60425 4.05752 3.94558 4.03893C4.28691 4.02033 4.61409 4.17737 4.81308 4.45532C6.29883 6.53059 8.4944 7.80069 10.9997 8.01002C10.9882 5.90475 12.3126 4.09665 14.2693 3.36395C15.8935 2.75575 17.816 2.68527 19.2813 3.91782ZM4.30038 6.9437C4.10567 7.57978 3.94001 8.36646 3.93168 9.20969C3.92179 10.2114 4.13325 11.2759 4.76818 12.2791C5.40167 13.28 6.50369 14.2942 8.39961 15.1208C8.73506 15.267 8.96383 15.5848 8.99609 15.9493C9.02835 16.3138 8.85893 16.6668 8.55437 16.8697C7.60269 17.5037 6.62142 18.0578 5.56919 18.448C7.72345 19.0773 9.8591 19.1445 11.755 18.5941M4.30038 6.9437C6.31387 8.98542 9.03713 10.1136 12.0256 10.0371C12.5677 10.0233 13 9.57977 13 9.03744V8.03744H13.0001L12.9999 8.02373C12.983 6.79256 13.7461 5.69547 14.9707 5.23694C16.3613 4.71622 17.5142 4.86862 18.2516 5.70067C18.5089 5.99103 18.9109 6.10636 19.283 5.99656C19.4912 5.93511 19.7105 5.87528 19.9378 5.81324C20.0243 5.78964 20.112 5.76572 20.2006 5.74127C20.1623 5.81767 20.1235 5.89439 20.0844 5.9712C19.9945 6.14767 19.9003 6.33004 19.8109 6.50334C19.7057 6.70699 19.6071 6.89811 19.5294 7.05244C19.4548 7.20075 19.3849 7.3437 19.3321 7.46381C19.3061 7.52293 19.2772 7.59219 19.2531 7.66251L19.2517 7.66666C19.2373 7.70825 19.182 7.8682 19.182 8.05944L19.182 8.06498C19.1885 9.24048 19.0336 10.4113 18.7215 11.5446C17.6905 15.2114 15.0209 17.6453 11.7552 18.5941" fill="#EFEFEF"/>
</svg>
